<?xml version="1.0" encoding="utf-8"?>
<!-- Generator: Adobe Illustrator 24.1.1, SVG Export Plug-In . SVG Version: 6.00 Build 0)  -->
<svg version="1.1"
	 id="svg33" xmlns:cc="http://creativecommons.org/ns#" xmlns:dc="http://purl.org/dc/elements/1.1/" xmlns:rdf="http://www.w3.org/1999/02/22-rdf-syntax-ns#" xmlns:svg="http://www.w3.org/2000/svg"
	 xmlns="http://www.w3.org/2000/svg" xmlns:xlink="http://www.w3.org/1999/xlink" x="0px" y="0px" viewBox="0 0 283.5 283.5"
	 style="enable-background:new 0 0 283.5 283.5;" xml:space="preserve">
<style type="text/css">
	.st0{fill:#F08833;fill-opacity:0.9804;stroke:#F08833;stroke-width:1.3342;stroke-opacity:0;}
	.st1{fill:none;stroke:#FFFFFF;stroke-width:0.2835;stroke-linecap:round;stroke-linejoin:round;}
	.st2{fill:#FFFFFF;stroke:#FFFFFF;}
	.st3{stroke:#FFFFFF;}
	.st4{fill:#FFFFFF;stroke:#FFFFFF;stroke-width:0.8504;stroke-miterlimit:10;}
	.st5{fill:#FFFFFF;stroke:#FFFFFF;stroke-width:0.8012;}
</style>
<g id="Livello_3">
</g>
<g id="layer1">
	<rect id="rect44" x="-1.2" y="0" class="st0" width="287.1" height="284.7"/>
</g>
<g id="Predefinito">
	<path id="path5" class="st1" d="M78.6,160c-0.5,0.4-1.2,0.4-1.7,0s-0.6-1.1-0.3-1.6c6.9-14.3,14.4-28.3,22.3-42
		c13.5-23.4,27-46.8,40.5-70.2c1-1.7,3.5-1.7,4.4,0c13.5,23.4,27,46.8,40.5,70.2c13.3,23,26.6,46,39.9,69.1c1.1,1.9-0.6,4.3-2.8,3.8
		c-38.3-8.8-73.8-27.1-103.2-53.4c20.5-10.9,43-17.6,66.1-19.5c-23.6,1.4-46.6,7.5-67.8,18c-6.3-5.7-12.2-11.7-17.8-18
		c5.5,6.3,11.3,12.4,17.3,18.3C102.7,141.4,90,149.9,78.6,160z"/>
	<path id="path7" class="st1" d="M140.1,29.5c-11.8,31.2-26.2,61.3-43,90.1c-8.4,14.4-17.4,28.4-27,42c-4.8,6.8-9.7,13.5-14.8,20.1
		c-2.5,3.3-5.1,6.6-7.7,9.8c-0.3,0.4-0.7,0.8-1,1.2c-0.3,0.4-0.6,0.8-0.8,1.2c-0.4,1-0.3,2.2,0.3,3.1c1.2,1.9,3.9,2,5.3,0.3
		c16.8-25.4,39.6-46.6,66.5-61.1c29.3,28,66.1,51.7,106.8,60.3c3.1,0.7,6.2,1.4,9.3,1.9c1.4,0.3,2.8-0.3,3.5-1.5
		c0.7-1.2,0.6-2.7-0.3-3.8c-39.8-49.2-71.5-104.4-93.9-163.6C142.8,28,140.7,28,140.1,29.5z"/>
	<path id="path9" class="st2" d="M237.2,193.1c0.9,1.1,1,2.6,0.3,3.8c-0.7,1.2-2.1,1.8-3.5,1.5c-3.1-0.6-6.2-1.2-9.3-1.9
		c-40.7-8.6-77.4-32.3-106.7-60.2l0.4-0.4c29.4,26.2,64.9,44.6,103.2,53.3c2.2,0.5,3.9-1.8,2.8-3.8c-13.3-23-26.6-46-39.9-69.1
		C200,143.2,217.6,168.9,237.2,193.1z"/>
	<path id="path11" class="st2" d="M183.7,115c-13.3-23-26.5-45.9-39.8-68.9c-1-1.7-3.4-1.7-4.4,0c-13.1,22.7-26.2,45.3-39.3,68
		c15.5-27.1,28.8-55.4,39.9-84.6c0.6-1.5,2.6-1.5,3.2,0C154.5,59,168,87.7,183.7,115z"/>
	<path id="path13" class="st3" d="M184.5,116.3c-23.2,1.8-45.6,8.6-66.1,19.5l-0.4,0.4c-0.1,0-0.1-0.1-0.1-0.1
		c-27,14.4-49.7,35.7-66.5,61.1c-1.4,1.7-4.1,1.6-5.3-0.3c-0.6-0.9-0.7-2.1-0.3-3.1c0.2-0.5,0.5-0.9,0.8-1.2c0.3-0.4,0.7-0.8,1-1.2
		c2.6-3.2,5.2-6.5,7.7-9.8c5.1-6.6,10-13.3,14.8-20.1c9.6-13.6,18.6-27.6,27-42c0.6-1.1,1.2-2.1,1.8-3.2
		c-7.9,13.7-15.4,27.7-22.3,42c-0.3,0.5-0.2,1.2,0.3,1.6c0.5,0.4,1.2,0.4,1.7,0c11.4-10.1,24.1-18.6,37.7-25.4
		c-6-5.8-11.8-11.9-17.3-18.2c5.6,6.3,11.5,12.3,17.8,18C137.9,123.9,160.9,117.8,184.5,116.3z"/>
</g>
<g id="allbora">
	<g id="g30">
		<path id="path16" class="st4" d="M75,224.7c2.2,0,4.1,0.3,5.6,0.8s2.7,1.3,3.6,2.3c0.9,1,1.5,2.2,1.9,3.6c0.4,1.4,0.6,3,0.6,4.6
			v17.4c-1,0.2-2.6,0.5-4.7,0.8s-4.4,0.5-7,0.5c-1.7,0-3.3-0.2-4.7-0.5s-2.7-0.9-3.7-1.6c-1-0.7-1.8-1.7-2.4-2.9
			c-0.6-1.2-0.8-2.6-0.8-4.4c0-1.6,0.3-3,1-4.2s1.5-2.1,2.6-2.8c1.1-0.7,2.4-1.2,3.8-1.5s3-0.5,4.5-0.5c0.7,0,1.5,0.1,2.3,0.1
			s1.7,0.3,2.6,0.5v-1.1c0-0.8-0.1-1.5-0.3-2.2s-0.5-1.3-1-1.8s-1.1-0.9-1.8-1.2c-0.8-0.3-1.7-0.4-2.8-0.4c-1.5,0-2.9,0.1-4.2,0.3
			c-1.3,0.2-2.3,0.5-3.1,0.8l-0.8-5.4c0.8-0.3,2.1-0.6,3.7-0.9C71.5,224.9,73.2,224.7,75,224.7z M75.6,249.5c2.1,0,3.6-0.1,4.7-0.3
			v-7.4c-0.4-0.1-0.9-0.2-1.6-0.3c-0.7-0.1-1.5-0.2-2.3-0.2c-0.7,0-1.5,0.1-2.2,0.2s-1.4,0.3-2,0.6c-0.6,0.3-1.1,0.7-1.5,1.2
			s-0.6,1.2-0.6,2c0,1.6,0.5,2.7,1.5,3.3C72.5,249.2,73.9,249.5,75.6,249.5z"/>
		<path id="path18" class="st4" d="M102.1,254.8c-2,0-3.6-0.3-4.9-0.7c-1.3-0.4-2.3-1-3.1-1.7c-0.8-0.8-1.3-1.7-1.6-2.8
			c-0.3-1.1-0.5-2.4-0.5-3.8v-33.1l6.7-1.1v32.9c0,0.8,0.1,1.5,0.2,2c0.1,0.6,0.4,1,0.7,1.4c0.3,0.4,0.8,0.7,1.3,0.9
			c0.6,0.2,1.3,0.4,2.2,0.5L102.1,254.8z"/>
		<path id="path20" class="st4" d="M115.7,254.8c-2,0-3.6-0.3-4.9-0.7c-1.3-0.4-2.3-1-3.1-1.7c-0.8-0.8-1.3-1.7-1.6-2.8
			c-0.3-1.1-0.5-2.4-0.5-3.8v-33.1l6.7-1.1v32.9c0,0.8,0.1,1.5,0.2,2c0.1,0.6,0.4,1,0.7,1.4c0.3,0.4,0.8,0.7,1.3,0.9
			c0.6,0.2,1.3,0.4,2.2,0.5L115.7,254.8z"/>
		<path id="path22" class="st4" d="M145.1,239.9c0,2.3-0.3,4.4-1,6.2c-0.7,1.9-1.6,3.4-2.9,4.8c-1.3,1.3-2.8,2.3-4.6,3
			c-1.8,0.7-3.8,1-6.1,1c-2.2,0-4.3-0.2-6.3-0.5s-3.7-0.7-5-1.1v-40.7l6.7-1.1v14.9c0.8-0.4,1.7-0.8,2.8-1.1
			c1.1-0.3,2.4-0.5,3.7-0.5c2,0,3.8,0.4,5.4,1.1c1.6,0.7,2.9,1.7,4,3.1c1.1,1.3,1.9,2.9,2.4,4.8
			C144.9,235.6,145.1,237.6,145.1,239.9z M138.3,239.8c0-2.8-0.6-5.1-1.7-6.7c-1.1-1.6-2.9-2.5-5.3-2.5c-1.1,0-2.1,0.2-3.1,0.5
			s-1.8,0.7-2.3,1.1v16.6c0.5,0.1,1.1,0.2,1.8,0.3s1.7,0.1,2.7,0.1c2.5,0,4.4-0.8,5.8-2.5C137.6,245,138.3,242.7,138.3,239.8z"/>
		<path id="path24" class="st4" d="M175.3,239.8c0,2.3-0.3,4.3-1,6.2c-0.7,1.9-1.6,3.5-2.8,4.8c-1.2,1.3-2.7,2.4-4.4,3.1
			s-3.6,1.1-5.6,1.1c-2.1,0-3.9-0.4-5.6-1.1c-1.7-0.7-3.1-1.8-4.3-3.1c-1.2-1.3-2.1-2.9-2.8-4.8c-0.7-1.9-1-3.9-1-6.2s0.3-4.3,1-6.2
			c0.7-1.9,1.6-3.4,2.9-4.8c1.2-1.3,2.7-2.3,4.4-3.1c1.7-0.7,3.5-1.1,5.6-1.1s3.9,0.4,5.6,1.1c1.7,0.7,3.2,1.7,4.4,3.1
			c1.2,1.3,2.1,2.9,2.8,4.8C174.9,235.5,175.3,237.5,175.3,239.8z M168.5,239.8c0-2.9-0.6-5.1-1.8-6.8s-2.9-2.5-5.1-2.5
			s-3.9,0.8-5.1,2.5c-1.2,1.7-1.8,3.9-1.8,6.8c0,2.9,0.6,5.2,1.8,6.9s2.9,2.5,5.1,2.5s3.9-0.8,5.1-2.5S168.5,242.7,168.5,239.8z"/>
		<path id="path26" class="st4" d="M195.8,231.4c-0.6-0.2-1.3-0.4-2.3-0.6s-2.1-0.3-3.4-0.3c-0.7,0-1.5,0.1-2.3,0.2
			c-0.8,0.1-1.4,0.3-1.7,0.4v23h-6.6v-27.4c1.3-0.5,2.9-0.9,4.8-1.4c1.9-0.4,4.1-0.6,6.4-0.6c0.4,0,0.9,0,1.5,0.1s1.2,0.1,1.8,0.2
			s1.2,0.2,1.7,0.3s1,0.3,1.3,0.4L195.8,231.4z"/>
		<path id="path28" class="st4" d="M208.4,224.7c2.2,0,4.1,0.3,5.6,0.8c1.5,0.6,2.7,1.3,3.6,2.3c0.9,1,1.5,2.2,1.9,3.6
			s0.6,3,0.6,4.6v17.4c-1,0.2-2.6,0.5-4.6,0.8c-2.1,0.3-4.4,0.5-7,0.5c-1.7,0-3.3-0.2-4.7-0.5s-2.6-0.9-3.7-1.6
			c-1-0.7-1.8-1.7-2.4-2.9c-0.6-1.2-0.9-2.6-0.9-4.4c0-1.6,0.3-3,1-4.2s1.5-2.1,2.6-2.8c1.1-0.7,2.4-1.2,3.8-1.5
			c1.4-0.3,3-0.5,4.5-0.5c0.7,0,1.5,0.1,2.3,0.1s1.7,0.3,2.6,0.5v-1.1c0-0.8-0.1-1.5-0.3-2.2c-0.2-0.7-0.5-1.3-1-1.8
			s-1.1-0.9-1.8-1.2c-0.8-0.3-1.7-0.4-2.8-0.4c-1.5,0-2.9,0.1-4.2,0.3s-2.3,0.5-3.1,0.8l-0.8-5.4c0.8-0.3,2.1-0.6,3.7-0.9
			C204.8,224.9,206.6,224.7,208.4,224.7z M208.9,249.5c2.1,0,3.6-0.1,4.7-0.3v-7.4c-0.4-0.1-0.9-0.2-1.6-0.3
			c-0.7-0.1-1.5-0.2-2.3-0.2c-0.7,0-1.5,0.1-2.2,0.2s-1.4,0.3-2,0.6c-0.6,0.3-1.1,0.7-1.5,1.2c-0.4,0.5-0.6,1.2-0.6,2
			c0,1.6,0.5,2.7,1.5,3.3C205.9,249.2,207.3,249.5,208.9,249.5z"/>
	</g>
</g>
<path id="path46" class="st5" d="M47,197.5c-2.2-1.3-1.2-3.4,6.1-12.8c8.4-10.7,20.3-27.4,27.9-39c3-4.5,5.5-8.1,5.6-8
	c0.1,0.1-2.1,4.6-4.9,10.1c-7.4,14.3-7,15.5,2.9,7.5c15.5-12.6,34-22.8,53.3-29.5c8.6-3,9.5-2.6,1.2,0.5
	c-31.9,11.9-60.2,33.4-81,61.2c-7.8,10.4-7.9,10.6-9,10.6C48.5,198.2,47.5,197.9,47,197.5L47,197.5z"/>
</svg>
