<?xml version="1.0" encoding="utf-8"?>
<!-- Generator: Adobe Illustrator 21.1.0, SVG Export Plug-In . SVG Version: 6.00 Build 0)  -->
<svg version="1.1" id="Layer_1_xA0_Immagine_1_" xmlns="http://www.w3.org/2000/svg" xmlns:xlink="http://www.w3.org/1999/xlink"
	 x="0px" y="0px" viewBox="0 0 935.9 819" style="enable-background:new 0 0 935.9 819;" xml:space="preserve">
<style type="text/css">
	.st0{display:none;fill:#FFFFFF;stroke:#FFFFFF;stroke-miterlimit:10;}
	.st1{fill:#FFFFFF;stroke:#FFFFFF;stroke-miterlimit:10;}
</style>
<g>
	<path class="st0" d="M30,798c0-260,0-520,0-780c292,0,584,0,876,0c0,260,0,520,0,780C614,798,322,798,30,798z M904.9,495.3
		c-0.4-16.6-2.3-37.5-6.8-58.3c-14.8-67.2-48.6-123.1-101.7-166.6c-63-51.6-135.5-73.5-216.8-66.5c-27.3,2.4-53.7,8.6-79.1,18.7
		c-4.7,1.9-6.7,1.2-9.2-3.2c-31.3-54.5-62.7-109-94.2-163.4c-16.9-29.3-46.9-42.6-79.2-34.8c-21.2,5.1-35.6,18.7-46.3,37.4
		c-51.8,90.1-103.8,180.1-155.8,270.1C91,371.5,66.2,414.4,41.4,457.4c-9,15.5-12.7,32.1-8.8,49.8c7.7,34.9,35.1,56.8,70.8,56.8
		c69.5,0,139,0,208.5-0.1c4.2,0,6,1,7,5.3c10.9,46.3,31.5,88,63.2,123.4c78.2,87.2,175.7,120.7,290.1,96.8
		C808,760.9,904.9,638.3,904.9,495.3z"/>
	<path class="st1" d="M904.9,495.3c0,143.1-96.9,265.7-232.7,294.1c-114.5,24-212-9.6-290.1-96.8c-31.7-35.4-52.3-77.1-63.2-123.4
		c-1-4.3-2.8-5.3-7-5.3c-69.5,0.1-139,0.1-208.5,0.1c-35.7,0-63.1-21.8-70.8-56.8c-3.9-17.7-0.2-34.3,8.8-49.8
		c24.8-42.9,49.6-85.8,74.3-128.7c52-90,104-180,155.8-270.1c10.7-18.6,25.1-32.3,46.3-37.4c32.3-7.8,62.3,5.5,79.2,34.8
		c31.5,54.4,62.9,108.9,94.2,163.4c2.5,4.4,4.5,5,9.2,3.2c25.5-10,51.8-16.3,79.1-18.7c81.2-7,153.8,14.9,216.8,66.5
		c53.1,43.5,86.9,99.4,101.7,166.6C902.7,457.7,904.6,478.7,904.9,495.3z M524.6,276.6c0.7,1.4,1.2,2.4,1.8,3.4
		c13.6,23.6,27.3,47.2,40.9,70.9c20.5,35.4,40.9,70.8,61.4,106.3c10.1,17.5,13.3,36,7.5,55.6c-9.1,31.2-35.8,51.2-68.2,51.2
		c-61.2,0-122.3,0-183.5,0c-2,0-3.9,0-6,0c19,75.2,90.5,160,203.1,172.7c91,10.3,190-33.8,238.9-129.9
		c46.7-91.9,28.1-204.2-44.8-276.1C700,255.9,596.2,247.8,524.6,276.6z M439.7,254c-0.8-1.5-1.6-3-2.4-4.4
		c-24.1-41.7-48.2-83.5-72.3-125.2c-7.3-12.7-14.6-25.4-22-38c-4.3-7.3-11.2-7.4-15.6-0.3c-0.6,1-1.2,2-1.8,3
		C249.1,221.7,172.5,354.3,96,486.9c-5.3,9.2-2,15.2,8.6,15.2c66.7,0,133.3,0,200,0c1.8,0,3.6,0,5.5,0
		C312.1,397.7,355.7,315.6,439.7,254z M492.6,457c2.2,0,3.9,0,5.5,0c11.2,0,22.3,0,33.5,0c6.7,0,11-4.1,11.3-10.7
		c0.2-3.7,0.2-7.3,0-11c-0.4-6.4-4.6-10.3-11-10.4c-9-0.1-18,0-27,0c-3.9,0-7.9,0-12.2,0c0-2.5,0-4.3,0-6.1c0-10.7,0.1-21.3,0-32
		c-0.1-8.4-3.9-12.2-12.2-12.5c-3-0.1-6-0.1-9,0c-7.3,0.4-11.2,4.5-11.3,11.8c-0.1,7.3,0,14.7,0,22c0,5.4,0,10.9,0,16.7
		c-2.3,0-3.9,0-5.5,0c-11.2,0-22.3,0-33.5,0c-6.8,0-10.9,4-11.1,10.7c-0.1,3.5-0.1,7,0,10.5c0.1,6.6,4.3,10.8,11,10.9
		c10.3,0.1,20.7,0,31,0c2.6,0,5.2,0,7.9,0c0.1,1.5,0.2,2.3,0.2,3.2c0,11.8-0.1,23.7,0,35.5c0.1,7.4,4.1,11.4,11.4,11.5
		c3.3,0.1,6.7,0.1,10,0c6.7-0.2,10.5-3.6,11-10.4c0.3-4.3,0.1-8.7,0.1-13C492.7,475.1,492.6,466.3,492.6,457z"/>
	<path class="st0" d="M524.6,276.6c71.6-28.8,175.4-20.7,251.1,54c72.9,71.9,91.5,184.2,44.8,276.1
		C771.7,702.9,672.7,747,581.7,736.7C469,723.9,397.5,639.1,378.5,564c2.1,0,4,0,6,0c61.2,0,122.3,0,183.5,0
		c32.4,0,59.1-20.1,68.2-51.2c5.7-19.6,2.6-38.1-7.5-55.6c-20.4-35.4-40.9-70.8-61.4-106.3c-13.6-23.6-27.3-47.2-40.9-70.9
		C525.8,279,525.3,278,524.6,276.6z"/>
	<path class="st0" d="M439.7,254c-83.9,61.6-127.5,143.7-129.6,248c-1.9,0-3.7,0-5.5,0c-66.7,0-133.3,0-200,0
		c-10.6,0-13.9-5.9-8.6-15.2c76.5-132.6,153.1-265.2,229.6-397.7c0.6-1,1.1-2,1.8-3c4.4-7.1,11.3-7,15.6,0.3
		c7.4,12.6,14.7,25.3,22,38c24.1,41.7,48.2,83.5,72.3,125.2C438,251,438.8,252.5,439.7,254z"/>
	<path class="st0" d="M492.6,457c0,9.3,0,18,0,26.8c0,4.3,0.2,8.7-0.1,13c-0.5,6.7-4.3,10.1-11,10.4c-3.3,0.1-6.7,0.1-10,0
		c-7.3-0.2-11.4-4.2-11.4-11.5c-0.1-11.8,0-23.7,0-35.5c0-0.8-0.1-1.6-0.2-3.2c-2.7,0-5.3,0-7.9,0c-10.3,0-20.7,0.1-31,0
		c-6.7-0.1-10.9-4.2-11-10.9c-0.1-3.5-0.1-7,0-10.5c0.2-6.7,4.2-10.7,11.1-10.7c11.2,0,22.3,0,33.5,0c1.6,0,3.3,0,5.5,0
		c0-5.8,0-11.3,0-16.7c0-7.3-0.1-14.7,0-22c0.1-7.3,4-11.4,11.3-11.8c3-0.2,6-0.1,9,0c8.3,0.2,12.1,4.1,12.2,12.5
		c0.1,10.7,0,21.3,0,32c0,1.8,0,3.6,0,6.1c4.3,0,8.3,0,12.2,0c9,0,18,0,27,0c6.4,0,10.7,4,11,10.4c0.2,3.7,0.2,7.3,0,11
		c-0.3,6.6-4.6,10.7-11.3,10.7c-11.2,0.1-22.3,0-33.5,0C496.5,457,494.9,457,492.6,457z"/>
</g>
</svg>
