<svg xmlns="http://www.w3.org/2000/svg" viewBox="0 0 221.93 32.49"><defs><style>.cls-1,.cls-6{font-size:27.74px;font-family:Mont-HeavyDEMO, Mont;font-weight:800;}.cls-1,.cls-9{fill:#554596;}.cls-2{letter-spacing:-0.02em;}.cls-3{letter-spacing:-0.02em;}.cls-4{letter-spacing:-0.04em;}.cls-5{letter-spacing:-0.03em;}.cls-10,.cls-6{fill:#45b384;}.cls-7{letter-spacing:-0.03em;}.cls-8{letter-spacing:-0.03em;}</style></defs><g id="Layer_2" data-name="Layer 2"><g id="Livello_1" data-name="Livello 1"><text class="cls-1" transform="translate(30.22 23.58)"><tspan class="cls-2">b</tspan><tspan class="cls-3" x="18.37" y="0">o</tspan><tspan class="cls-4" x="36.01" y="0">o</tspan><tspan class="cls-5" x="53.1" y="0">s</tspan><tspan x="67.11" y="0">t</tspan></text><text class="cls-6" transform="translate(111.68 23.58)"><tspan class="cls-3">a</tspan><tspan class="cls-2" x="18.53" y="0">b</tspan><tspan class="cls-3" x="36.9" y="0">r</tspan><tspan class="cls-7" x="47.94" y="0">u</tspan><tspan class="cls-3" x="64.86" y="0">z</tspan><tspan class="cls-8" x="78.51" y="0">z</tspan><tspan x="91.94" y="0">o</tspan></text><path class="cls-9" d="M24.78,9.45l-4.9-1.34a4.56,4.56,0,0,1-2.59-1.88L14.51,2a1.76,1.76,0,0,0-2.94,0L8.78,6.23A4.56,4.56,0,0,1,6.19,8.11L1.3,9.45a1.76,1.76,0,0,0-.91,2.8l2.82,3.53a6,6,0,0,1,1.31,4l-.21,4.51a1.76,1.76,0,0,0,2.38,1.73l4.16-1.57a6.2,6.2,0,0,1,4.37,0l4.16,1.57a1.76,1.76,0,0,0,2.38-1.73l-.21-4.51a6,6,0,0,1,1.31-4l2.83-3.53a1.76,1.76,0,0,0-.91-2.8M18.49,14.2,16.91,15a1.15,1.15,0,0,0-.56,1.42l.75,2a1.14,1.14,0,0,1-1.85,1.22l-1.4-1.32a1.13,1.13,0,0,0-1.56,0l-1.48,1.38A1.14,1.14,0,0,1,9,18.41l.8-2A1.15,1.15,0,0,0,9.22,15l-1.64-.82A1.13,1.13,0,0,1,8.09,12h2.28a1.14,1.14,0,0,0,1.11-.87l.47-2a1.14,1.14,0,0,1,2.21,0l.51,2a1.13,1.13,0,0,0,1.09.86L18,12a1.14,1.14,0,0,1,.49,2.16"/><path class="cls-9" d="M14.67,14.12A1.64,1.64,0,1,1,13,12.49a1.63,1.63,0,0,1,1.63,1.63"/><path class="cls-10" d="M5.66,6.61A3.24,3.24,0,0,0,7.51,5.26l.71-1.07A.3.3,0,0,0,8,3.73l-2.81,0A.29.29,0,0,0,4.88,4L4,6.58A.29.29,0,0,0,4.4,7Z"/><path class="cls-10" d="M18.56,5.26a3.24,3.24,0,0,0,1.85,1.35l1.3.36a.3.3,0,0,0,.36-.38l-.9-2.73a.3.3,0,0,0-.29-.2H18.06a.3.3,0,0,0-.24.46Z"/><path class="cls-10" d="M2.93,19.84a4.7,4.7,0,0,0-1-3.16l-.42-.53a.3.3,0,0,0-.52.09l-.85,2.7a.29.29,0,0,0,.1.33l2.21,1.59a.29.29,0,0,0,.47-.23Z"/><path class="cls-10" d="M24.17,16.68a4.7,4.7,0,0,0-1,3.16l0,.79a.3.3,0,0,0,.47.23L26,19.12a.28.28,0,0,0,.1-.33l-.89-2.69a.29.29,0,0,0-.51-.09Z"/><path class="cls-10" d="M13,25.67a7.44,7.44,0,0,0-2.36.55.3.3,0,0,0-.06.52L13,28.44a.29.29,0,0,0,.35,0l2.28-1.68a.3.3,0,0,0,0-.51A6.33,6.33,0,0,0,13,25.67"/></g></g></svg>